<svg id="Capa_1" enable-background="new 0 0 512 512" height="512" viewBox="0 0 512 512" width="512" xmlns="http://www.w3.org/2000/svg"><g><path d="m512 256c0 76.36-33.44 144.92-86.47 191.83h-12.99c-18.78 0-36.76 5.33-52.11 14.88-15.35 9.54-28.07 23.29-36.39 40.14v.01c-21.67 5.96-44.48 9.14-68.04 9.14-23.55 0-46.37-3.18-68.03-9.14-8.31-16.85-21.04-30.61-36.39-40.15-15.36-9.55-33.32-14.88-52.11-14.88h-12.99c-53.04-46.91-86.48-115.46-86.48-191.83 0-46.22 12.25-89.57 33.68-127 44.12-77.07 127.16-129 222.32-129s178.2 51.93 222.32 129c21.43 37.43 33.68 80.78 33.68 127z" fill="#464f6e"/><path d="m512 256c0 76.36-33.44 144.92-86.47 191.82l-.01.01h-12.98c-18.78 0-36.76 5.33-52.11 14.88-15.35 9.54-28.08 23.3-36.39 40.15h-.01c-21.66 5.96-44.48 9.14-68.03 9.14s-46.37-3.18-68.03-9.14c-8.31-16.85-21.04-30.61-36.39-40.15-15.36-9.55-33.32-14.88-52.11-14.88h-12.99l-.01-.01c-53.03-46.91-86.47-115.45-86.47-191.82 0-46.22 12.25-89.57 33.68-127 24.89 43.49 62.18 78.97 107.04 101.62 14.97 7.58 30.78 13.71 47.26 18.24h.01c21.66 5.96 44.46 9.14 68.01 9.14 23.7 0 46.64-3.22 68.42-9.25 16.34-4.52 32.02-10.62 46.87-18.13 44.86-22.66 82.14-58.14 107.03-101.62 21.43 37.43 33.68 80.78 33.68 127z" fill="#303c5a"/><g><g><g fill="#22d7ff"><path d="m256 178.999c-5.187 0-9.392-4.205-9.392-9.392v-25.493c0-5.187 4.205-9.392 9.392-9.392s9.392 4.205 9.392 9.392v25.493c0 5.187-4.205 9.392-9.392 9.392z"/><path d="m256 444.835c-5.187 0-9.392-4.205-9.392-9.392v-51.964c0-5.187 4.205-9.392 9.392-9.392s9.392 4.205 9.392 9.392v51.964c0 5.186-4.205 9.392-9.392 9.392zm0-88.612c-5.187 0-9.392-4.205-9.392-9.392v-51.964c0-5.187 4.205-9.392 9.392-9.392s9.392 4.205 9.392 9.392v51.964c0 5.187-4.205 9.392-9.392 9.392zm0-88.612c-5.187 0-9.392-4.205-9.392-9.392v-51.964c0-5.187 4.205-9.392 9.392-9.392s9.392 4.205 9.392 9.392v51.964c0 5.187-4.205 9.392-9.392 9.392z"/><path d="m256 506.975c-5.187 0-9.392-4.205-9.392-9.392v-25.493c0-5.187 4.205-9.392 9.392-9.392s9.392 4.205 9.392 9.392v25.493c0 5.187-4.205 9.392-9.392 9.392z"/></g></g><g><path d="m318.875 227.819c0 1.035-.837 1.867-1.867 1.867h-8.385l5.932 5.931c.725.725.725 1.91 0 2.64-.368.363-.843.544-1.323.544-.475 0-.955-.181-1.318-.544l-5.931-5.931v8.385c0 .992-.779 1.808-1.76 1.862-.037.005-.069.005-.107.005-1.029 0-1.867-.837-1.867-1.867v-8.385l-5.926 5.931c-.368.363-.843.544-1.323.544-.475 0-.955-.181-1.318-.544-.731-.731-.731-1.915 0-2.64l5.926-5.931h-8.38c-1.035 0-1.867-.832-1.867-1.867 0-1.03.832-1.867 1.867-1.867h8.38l-5.926-5.926c-.731-.731-.731-1.91 0-2.64.731-.731 1.91-.731 2.64 0l5.926 5.926v-8.38c0-1.035.837-1.867 1.867-1.867.037 0 .069 0 .107.005.982.053 1.76.864 1.76 1.861v8.38l5.931-5.926c.725-.731 1.91-.731 2.64 0 .725.731.725 1.91 0 2.64l-5.932 5.926h8.385c1.032.002 1.869.839 1.869 1.868z" fill="#81f700"/><path d="m318.875 227.819c0 1.035-.837 1.867-1.867 1.867h-8.385l5.932 5.931c.725.725.725 1.91 0 2.64-.368.363-.843.544-1.323.544-.475 0-.955-.181-1.318-.544l-5.931-5.931v8.385c0 .992-.779 1.808-1.76 1.862v-29.502c.982.053 1.76.864 1.76 1.861v8.38l5.931-5.926c.725-.731 1.91-.731 2.64 0 .725.731.725 1.91 0 2.64l-5.932 5.926h8.385c1.031.001 1.868.838 1.868 1.867z" fill="#00cc7f"/><path d="m313.2 227.819c0 4.939-4.006 8.945-8.945 8.945h-.032c-4.923-.016-8.913-4.017-8.913-8.945 0-4.929 3.99-8.924 8.913-8.94h.032c4.939.001 8.945 4.001 8.945 8.94z" fill="#00cc7f"/><path d="m313.2 227.819c0 4.939-4.006 8.945-8.945 8.945h-.032v-17.884h.032c4.939 0 8.945 4 8.945 8.939z" fill="#029291"/><path d="m308.741 227.819c0 2.48-2.011 4.486-4.486 4.486h-.032c-2.459-.016-4.454-2.016-4.454-4.486 0-2.464 1.995-4.47 4.454-4.486h.032c2.475.001 4.486 2.011 4.486 4.486z" fill="#81f700"/><path d="m308.741 227.819c0 2.48-2.011 4.486-4.486 4.486h-.032v-8.972h.032c2.475.001 4.486 2.011 4.486 4.486z" fill="#00cc7f"/></g><g><path d="m490.589 336.765c0 1.035-.837 1.867-1.867 1.867h-8.385l5.931 5.931c.725.725.725 1.909 0 2.64-.368.363-.843.544-1.323.544-.475 0-.955-.181-1.318-.544l-5.931-5.931v8.385c0 .992-.779 1.808-1.76 1.862-.037.005-.069.005-.107.005-1.029 0-1.867-.837-1.867-1.867v-8.385l-5.926 5.931c-.368.363-.843.544-1.323.544-.475 0-.955-.181-1.318-.544-.731-.731-.731-1.915 0-2.64l5.926-5.931h-8.38c-1.035 0-1.867-.832-1.867-1.867 0-1.03.832-1.867 1.867-1.867h8.38l-5.926-5.926c-.731-.731-.731-1.91 0-2.64.731-.731 1.91-.731 2.64 0l5.926 5.926v-8.38c0-1.035.837-1.867 1.867-1.867.037 0 .069 0 .107.005.982.053 1.76.864 1.76 1.862v8.38l5.931-5.926c.725-.731 1.91-.731 2.64 0 .725.731.725 1.91 0 2.64l-5.931 5.926h8.385c1.032 0 1.869.838 1.869 1.867z" fill="#81f700"/><path d="m490.589 336.765c0 1.035-.837 1.867-1.867 1.867h-8.385l5.931 5.931c.725.725.725 1.909 0 2.64-.368.363-.843.544-1.323.544-.475 0-.955-.181-1.318-.544l-5.931-5.931v8.385c0 .992-.779 1.808-1.76 1.862v-29.502c.982.053 1.76.864 1.76 1.862v8.38l5.931-5.926c.725-.731 1.91-.731 2.64 0 .725.731.725 1.91 0 2.64l-5.931 5.926h8.385c1.031-.001 1.868.837 1.868 1.866z" fill="#00cc7f"/><path d="m484.914 336.765c0 4.939-4.006 8.945-8.945 8.945h-.032c-4.923-.016-8.913-4.017-8.913-8.945s3.99-8.924 8.913-8.94h.032c4.939 0 8.945 4.001 8.945 8.94z" fill="#00cc7f"/><path d="m484.914 336.765c0 4.939-4.006 8.945-8.945 8.945h-.032v-17.885h.032c4.939 0 8.945 4.001 8.945 8.94z" fill="#029291"/><path d="m480.455 336.765c0 2.48-2.011 4.486-4.486 4.486h-.032c-2.459-.016-4.454-2.016-4.454-4.486 0-2.464 1.995-4.47 4.454-4.486h.032c2.475 0 4.486 2.011 4.486 4.486z" fill="#81f700"/><path d="m480.455 336.765c0 2.48-2.011 4.486-4.486 4.486h-.032v-8.972h.032c2.475 0 4.486 2.011 4.486 4.486z" fill="#00cc7f"/></g><g><path d="m474.297 218.185c0 1.354-1.096 2.443-2.443 2.443h-10.974l7.762 7.762c.949.949.949 2.499 0 3.455-.482.475-1.103.712-1.731.712-.621 0-1.25-.237-1.724-.712l-7.762-7.762v10.973c0 1.298-1.019 2.367-2.303 2.436-.049.007-.091.007-.14.007-1.347 0-2.443-1.096-2.443-2.443v-10.973l-7.755 7.762c-.482.475-1.103.712-1.731.712-.621 0-1.249-.237-1.724-.712-.956-.956-.956-2.506 0-3.455l7.755-7.762h-10.966c-1.354 0-2.443-1.089-2.443-2.443 0-1.347 1.089-2.443 2.443-2.443h10.966l-7.755-7.755c-.956-.956-.956-2.499 0-3.455s2.499-.956 3.455 0l7.755 7.755v-10.967c0-1.354 1.096-2.443 2.443-2.443.049 0 .091 0 .14.007 1.284.07 2.303 1.131 2.303 2.436v10.966l7.762-7.755c.949-.956 2.499-.956 3.455 0 .949.956.949 2.499 0 3.455l-7.762 7.755h10.973c1.348.001 2.444 1.097 2.444 2.444z" fill="#81f700"/><path d="m474.297 218.185c0 1.354-1.096 2.443-2.443 2.443h-10.974l7.762 7.762c.949.949.949 2.499 0 3.455-.482.475-1.103.712-1.731.712-.621 0-1.25-.237-1.724-.712l-7.762-7.762v10.973c0 1.298-1.019 2.367-2.303 2.436v-38.608c1.284.07 2.303 1.131 2.303 2.436v10.966l7.762-7.755c.949-.956 2.499-.956 3.455 0 .949.956.949 2.499 0 3.455l-7.762 7.755h10.973c1.348.001 2.444 1.097 2.444 2.444z" fill="#00cc7f"/><path d="m466.87 218.185c0 6.464-5.242 11.706-11.706 11.706h-.042c-6.443-.021-11.664-5.256-11.664-11.706s5.221-11.678 11.664-11.699h.042c6.463 0 11.706 5.235 11.706 11.699z" fill="#00cc7f"/><path d="m466.87 218.185c0 6.464-5.242 11.706-11.706 11.706h-.042v-23.405h.042c6.463 0 11.706 5.235 11.706 11.699z" fill="#029291"/><path d="m461.034 218.185c0 3.246-2.632 5.87-5.87 5.87h-.042c-3.218-.021-5.828-2.639-5.828-5.87 0-3.225 2.611-5.85 5.828-5.871h.042c3.238 0 5.87 2.632 5.87 5.871z" fill="#81f700"/><path d="m461.034 218.185c0 3.246-2.632 5.87-5.87 5.87h-.042v-11.741h.042c3.238 0 5.87 2.632 5.87 5.871z" fill="#00cc7f"/></g><g><path d="m310.89 436.346c0 1.354-1.096 2.443-2.443 2.443h-10.973l7.762 7.762c.949.949.949 2.499 0 3.455-.482.475-1.103.712-1.731.712-.621 0-1.249-.237-1.724-.712l-7.762-7.762v10.973c0 1.298-1.019 2.366-2.303 2.436-.049.007-.091.007-.14.007-1.347 0-2.443-1.096-2.443-2.443v-10.973l-7.755 7.762c-.482.475-1.103.712-1.731.712-.621 0-1.25-.237-1.724-.712-.956-.956-.956-2.506 0-3.455l7.755-7.762h-10.966c-1.354 0-2.443-1.089-2.443-2.443 0-1.347 1.089-2.443 2.443-2.443h10.966l-7.755-7.755c-.956-.956-.956-2.499 0-3.455s2.499-.956 3.455 0l7.755 7.755v-10.966c0-1.354 1.096-2.443 2.443-2.443.049 0 .091 0 .14.007 1.284.07 2.303 1.131 2.303 2.436v10.966l7.762-7.755c.949-.956 2.499-.956 3.455 0 .949.956.949 2.499 0 3.455l-7.762 7.755h10.973c1.347 0 2.443 1.096 2.443 2.443z" fill="#81f700"/><path d="m310.89 436.346c0 1.354-1.096 2.443-2.443 2.443h-10.973l7.762 7.762c.949.949.949 2.499 0 3.455-.482.475-1.103.712-1.731.712-.621 0-1.249-.237-1.724-.712l-7.762-7.762v10.973c0 1.298-1.019 2.366-2.303 2.436v-38.608c1.284.07 2.303 1.131 2.303 2.436v10.966l7.762-7.755c.949-.956 2.499-.956 3.455 0 .949.956.949 2.499 0 3.455l-7.762 7.755h10.973c1.347.001 2.443 1.097 2.443 2.444z" fill="#00cc7f"/><path d="m303.463 436.346c0 6.464-5.242 11.706-11.706 11.706h-.042c-6.443-.021-11.664-5.256-11.664-11.706s5.221-11.678 11.664-11.699h.042c6.464 0 11.706 5.236 11.706 11.699z" fill="#00cc7f"/><path d="m303.463 436.346c0 6.464-5.242 11.706-11.706 11.706h-.042v-23.405h.042c6.464 0 11.706 5.236 11.706 11.699z" fill="#029291"/><path d="m297.628 436.346c0 3.246-2.632 5.87-5.87 5.87h-.042c-3.218-.021-5.829-2.639-5.829-5.87 0-3.225 2.611-5.85 5.829-5.871h.042c3.238.001 5.87 2.632 5.87 5.871z" fill="#81f700"/><path d="m297.628 436.346c0 3.246-2.632 5.87-5.87 5.87h-.042v-11.741h.042c3.238.001 5.87 2.632 5.87 5.871z" fill="#00cc7f"/></g><g><g><g><path d="m109.301 203.321h-10.506c-8.507 0-15.403-6.896-15.403-15.403 0-5.802 4.703-10.505 10.505-10.505h15.403v25.908z" fill="#ffa67d"/><path d="m166.282 203.321h10.505c8.507 0 15.403-6.896 15.403-15.403 0-5.802-4.703-10.505-10.505-10.505h-15.403z" fill="#ffa67d"/><g><path d="m215.78 308.55v41.33c0 14.4-5.4 28.26-15.14 38.86l-11.53 12.57v95.85c0 2.02-.4 3.95-1.14 5.7-17.56-4.82-34.35-11.48-50.18-19.74-18.55-9.67-35.77-21.55-51.31-35.29l-.01-.01v-46.51l-11.54-12.57c-9.74-10.6-15.14-24.46-15.14-38.86v-40.58c0-23.49 10.29-44.72 26.62-59.19 13.7-12.15 31.64-19.54 51.34-19.55h.04c.98 0 1.96.02 2.93.06 17.97.66 34.39 7.4 47.26 18.24h.01c.44.37.87.74 1.3 1.12 16.24 14.29 26.49 35.23 26.49 58.57z" fill="#fff"/><path d="m215.78 308.55v41.33c0 14.4-5.4 28.26-15.14 38.86l-11.53 12.57v95.85c0 2.02-.4 3.95-1.14 5.7-17.56-4.82-34.35-11.48-50.18-19.74v-252.56c.98 0 1.96.02 2.93.06 17.97.66 34.39 7.41 47.26 18.24 17 14.3 27.8 35.74 27.8 59.69z" fill="#cff6ff"/><path d="m189.293 249.981c-13.503 12.559-31.606 20.244-51.506 20.244-19.831 0-37.88-7.632-51.372-20.115 13.696-12.145 31.638-19.541 51.335-19.552h.038c19.739 0 37.766 7.337 51.505 19.423z" fill="#cff6ff"/><path d="m189.293 249.981c-13.503 12.559-31.606 20.244-51.506 20.244v-39.667c19.74 0 37.767 7.337 51.506 19.423z" fill="#b0edf7"/><path d="m176.788 185.831v17.49c0 21.06-16.605 38.651-37.657 39.23-.447.012-.895.018-1.345.018-.446 0-.891-.006-1.334-.018-21.052-.575-37.656-18.171-37.656-39.23v-17.491c0-21.059 16.605-38.655 37.656-39.23.443-.012.888-.018 1.334-.018.45 0 .898.006 1.345.018 21.051.579 37.657 18.171 37.657 39.231z" fill="#ffc0a3"/><path d="m176.788 185.831v17.49c0 21.06-16.605 38.651-37.657 39.23-.447.012-.895.018-1.345.018v-95.988c.45 0 .898.006 1.345.018 21.051.58 37.657 18.172 37.657 39.232z" fill="#ffa67d"/><path d="m215.79 341.25v8.63c0 14.4-5.41 28.26-15.14 38.86l-11.54 12.57v95.85c0 2.02-.4 3.95-1.14 5.7-38.13-10.49-72.7-29.57-101.49-55.03v-46.52l-11.54-12.57c-9.74-10.6-15.14-24.46-15.14-38.86v-8.63z" fill="#22d7ff"/><path d="m215.78 341.25v8.63c0 14.4-5.4 28.26-15.14 38.86l-11.53 12.57v95.85c0 2.02-.4 3.95-1.14 5.7-17.56-4.82-34.35-11.48-50.18-19.74v-141.87z" fill="#00b3ff"/><path d="m86.474 309.296v92.011l-11.539-12.564c-9.741-10.6-15.14-24.468-15.14-38.862v-40.585z" fill="#ffc0a3"/><path d="m189.105 309.296v92.011l11.539-12.564c9.741-10.6 15.14-24.468 15.14-38.862v-40.585z" fill="#ffa67d"/></g></g><g><g><ellipse cx="122.091" cy="194.576" fill="#63455d" rx="7.049" ry="7.049" transform="matrix(.207 -.978 .978 .207 -93.514 273.825)"/><ellipse cx="153.489" cy="194.576" fill="#53354b" rx="7.049" ry="7.049" transform="matrix(.207 -.978 .978 .207 -68.604 304.546)"/></g><path d="m149.006 210.899c2.211 0 3.832 2.122 3.209 4.243-1.831 6.238-7.597 10.795-14.431 10.795-6.829 0-12.595-4.557-14.426-10.795-.623-2.122.998-4.243 3.209-4.243z" fill="#63455d"/><path d="m182.872 169.633-6.086 6.021v10.176c-14.947 0-28.649-8.313-35.556-21.564l-3.44-6.601-.005.011-3.435 6.591c-3.451 6.628-8.603 12.016-14.764 15.752-6.156 3.735-13.321 5.812-20.792 5.812v-10.176l-6.086-6.021c0-21.21 17.19-38.401 38.4-38.401h13.369c21.204-.001 38.395 17.189 38.395 38.4z" fill="#ffdc00"/><path d="m182.872 169.633-6.086 6.021v10.176c-14.947 0-28.649-8.313-35.556-21.564l-3.44-6.601-.005.011v-26.443h6.693c21.203-.001 38.394 17.189 38.394 38.4z" fill="#ffbc00"/><path d="m152.215 215.142c-1.831 6.238-7.597 10.795-14.431 10.795v-15.038h11.222c2.211 0 3.832 2.122 3.209 4.243z" fill="#53354b"/></g></g><g><g><path d="m345.72 203.321h-10.505c-8.507 0-15.403-6.896-15.403-15.403 0-5.802 4.703-10.505 10.505-10.505h15.403z" fill="#ffa67d"/><path d="m402.702 203.321h10.505c8.507 0 15.403-6.896 15.403-15.403 0-5.802-4.703-10.505-10.505-10.505h-15.403z" fill="#ffa67d"/><g><path d="m452.2 308.55v41.33c0 14.4-5.4 28.26-15.14 38.86l-11.53 12.57v46.51c-15.54 13.75-32.76 25.63-51.32 35.3-15.83 8.26-32.62 14.92-50.18 19.74-.74-1.75-1.14-3.68-1.14-5.7v-95.85l-11.54-12.57c-9.74-10.6-15.14-24.46-15.14-38.86v-40.58c0-23.49 10.29-44.72 26.62-59.19.52-.46 1.05-.92 1.59-1.36 12.8-10.77 29.05-17.47 46.87-18.13.95-.04 1.91-.06 2.88-.06h.04c19.74 0 37.76 7.33 51.5 19.42 16.24 14.29 26.49 35.23 26.49 58.57z" fill="#fff"/><path d="m452.2 308.55v41.33c0 14.4-5.4 28.26-15.14 38.86l-11.53 12.57v46.51c-15.54 13.75-32.76 25.63-51.32 35.3v-252.56c43.07 0 77.99 34.92 77.99 77.99z" fill="#cff6ff"/><path d="m425.713 249.981c-13.503 12.559-31.606 20.244-51.507 20.244-19.831 0-37.88-7.632-51.372-20.115 13.697-12.145 31.638-19.541 51.335-19.552h.038c19.739 0 37.767 7.337 51.506 19.423z" fill="#cff6ff"/><path d="m425.713 249.981c-13.503 12.559-31.606 20.244-51.507 20.244v-39.667c19.74 0 37.768 7.337 51.507 19.423z" fill="#b0edf7"/><path d="m413.209 185.83v17.491c0 21.06-16.605 38.653-37.66 39.232-.445.011-.896.016-1.342.016-.451 0-.891-.005-1.336-.016-21.049-.574-37.654-18.172-37.654-39.232v-17.491c0-21.06 16.605-38.653 37.654-39.232.445-.011.886-.016 1.336-.016.445 0 .896.005 1.342.016 21.055.579 37.66 18.172 37.66 39.232z" fill="#ffc0a3"/><path d="m413.207 185.831v17.49c0 21.06-16.605 38.651-37.657 39.23-.447.012-.895.018-1.345.018v-95.988c.45 0 .898.006 1.345.018 21.052.58 37.657 18.172 37.657 39.232z" fill="#ffa67d"/><path d="m413.209 185.83v4.535h-77.992v-4.535c0-21.06 16.605-38.653 37.654-39.232.445-.011.886-.016 1.336-.016.445 0 .896.005 1.342.016 21.055.579 37.66 18.172 37.66 39.232z" fill="#fc5b5b"/><path d="m413.209 185.83v4.535h-39.001v-43.783c.445 0 .896.005 1.342.016 21.054.579 37.659 18.172 37.659 39.232z" fill="#ff3d3b"/><path d="m452.21 341.25v8.63c0 14.4-5.41 28.26-15.14 38.86l-11.54 12.57v46.51c-28.79 25.47-63.37 44.55-101.5 55.04-.74-1.75-1.14-3.68-1.14-5.7v-95.85l-11.53-12.57c-9.75-10.6-15.14-24.46-15.14-38.86v-8.63z" fill="#85ef47"/><path d="m452.2 341.25v8.63c0 14.4-5.4 28.26-15.14 38.86l-11.53 12.57v46.51c-15.54 13.75-32.76 25.63-51.32 35.3v-141.87z" fill="#02bd57"/><path d="m322.893 309.296v92.011l-11.539-12.564c-9.741-10.6-15.14-24.468-15.14-38.862v-40.585z" fill="#ffc0a3"/><path d="m425.525 309.296v92.011l11.539-12.564c9.741-10.6 15.14-24.468 15.14-38.862v-40.585z" fill="#ffa67d"/></g></g><g><g><ellipse cx="358.575" cy="194.576" fill="#63455d" rx="7.049" ry="7.049" transform="matrix(.207 -.978 .978 .207 94.105 505.206)"/><ellipse cx="389.973" cy="194.576" fill="#53354b" rx="7.049" ry="7.049" transform="matrix(.207 -.978 .978 .207 119.015 535.926)"/></g><path d="m385.49 229.134c2.211 0 3.832-2.122 3.209-4.243-1.831-6.238-7.597-10.795-14.431-10.795-6.829 0-12.594 4.557-14.426 10.795-.623 2.122.998 4.243 3.209 4.243z" fill="#63455d"/><path d="m419.356 169.633-6.086 6.021v10.176c-14.947 0-28.649-8.313-35.556-21.564l-3.44-6.601-.005.011-3.435 6.591c-3.451 6.628-8.603 12.016-14.764 15.752-6.156 3.735-13.321 5.812-20.792 5.812v-10.176l-6.086-6.021c0-21.21 17.19-38.401 38.4-38.401h13.369c21.205-.001 38.395 17.189 38.395 38.4z" fill="#ffdc00"/><path d="m419.356 169.633-6.086 6.021v10.176c-14.947 0-28.649-8.313-35.556-21.564l-3.44-6.601-.005.011v-26.443h6.693c21.204-.001 38.394 17.189 38.394 38.4z" fill="#ffbc00"/><path d="m388.699 224.891c-1.831-6.238-7.597-10.795-14.431-10.795v15.038h11.222c2.212 0 3.832-2.121 3.209-4.243z" fill="#53354b"/></g><path d="m350.4 210.899h-7.708c-1.609 0-2.913-1.304-2.913-2.913 0-1.609 1.304-2.913 2.913-2.913h7.708c1.609 0 2.913 1.304 2.913 2.913 0 1.609-1.304 2.913-2.913 2.913z" fill="#ff3d3b"/><path d="m404.327 210.899h-7.708c-1.609 0-2.913-1.304-2.913-2.913 0-1.609 1.304-2.913 2.913-2.913h7.708c1.609 0 2.913 1.304 2.913 2.913 0 1.609-1.304 2.913-2.913 2.913z" fill="#ff3d3b"/><g fill="#fff"><path d="m408.061 194.206c-.474-.72-.913-1.462-1.316-2.224l-.835-1.58c-.184-.348-.683-.348-.867 0l-.835 1.58c-.403.762-.842 1.504-1.316 2.224-.806 1.223-.652 2.893.461 3.946 1.173 1.109 3.075 1.109 4.247 0 1.114-1.053 1.267-2.722.461-3.946z"/><path d="m346.019 196.798c-.29-.429-.587-.854-.829-1.312l-1.302-2.463c-.184-.349-.683-.349-.867 0l-1.302 2.463c-.242.458-.54.882-.829 1.312-.929 1.376-.629 3.334.898 4.335.999.654 2.335.654 3.334 0 1.526-1 1.826-2.959.897-4.335z"/><path d="m371.281 177.018c-.29-.43-.587-.854-.829-1.312l-1.302-2.463c-.184-.348-.683-.348-.867 0l-1.302 2.464c-.242.458-.54.882-.829 1.311-.929 1.376-.629 3.335.898 4.335.999.654 2.335.654 3.334 0 1.526-1.001 1.826-2.959.897-4.335z"/></g></g></g></g><path d="m512 256c0 141.38-114.62 256-256 256s-256-114.62-256-256c0-46.22 12.25-89.57 33.68-127 44.12-77.07 127.16-129 222.32-129s178.2 51.93 222.32 129c21.43 37.43 33.68 80.78 33.68 127z" fill="none"/></g></svg>